<mxfile host="app.diagrams.net" agent="Mozilla/5.0 (Windows NT 10.0; Win64; x64) AppleWebKit/537.36 (KHTML, like Gecko) Chrome/130.0.0.0 Safari/537.36" version="24.8.3">
  <diagram id="C5RBs43oDa-KdzZeNtuy" name="Page-1">
    <mxGraphModel dx="1903" dy="1716" grid="1" gridSize="10" guides="1" tooltips="1" connect="1" arrows="1" fold="1" page="1" pageScale="1" pageWidth="827" pageHeight="1169" math="0" shadow="0">
      <root>
        <mxCell id="WIyWlLk6GJQsqaUBKTNV-0" />
        <mxCell id="WIyWlLk6GJQsqaUBKTNV-1" parent="WIyWlLk6GJQsqaUBKTNV-0" />
        <mxCell id="_bW6Bb8Mx8YTXIlW3waP-9" style="edgeStyle=orthogonalEdgeStyle;rounded=0;orthogonalLoop=1;jettySize=auto;html=1;exitX=1;exitY=0.5;exitDx=0;exitDy=0;entryX=0.5;entryY=0;entryDx=0;entryDy=0;" edge="1" parent="WIyWlLk6GJQsqaUBKTNV-1" source="_bW6Bb8Mx8YTXIlW3waP-1" target="_bW6Bb8Mx8YTXIlW3waP-6">
          <mxGeometry relative="1" as="geometry" />
        </mxCell>
        <mxCell id="_bW6Bb8Mx8YTXIlW3waP-1" value="Enter the Name" style="rounded=1;whiteSpace=wrap;html=1;fillColor=#d5e8d4;strokeColor=#82b366;" vertex="1" parent="WIyWlLk6GJQsqaUBKTNV-1">
          <mxGeometry x="370" y="60" width="103" height="30" as="geometry" />
        </mxCell>
        <mxCell id="_bW6Bb8Mx8YTXIlW3waP-13" style="edgeStyle=orthogonalEdgeStyle;rounded=0;orthogonalLoop=1;jettySize=auto;html=1;exitX=0.5;exitY=1;exitDx=0;exitDy=0;entryX=0.5;entryY=0;entryDx=0;entryDy=0;" edge="1" parent="WIyWlLk6GJQsqaUBKTNV-1" source="_bW6Bb8Mx8YTXIlW3waP-2" target="_bW6Bb8Mx8YTXIlW3waP-12">
          <mxGeometry relative="1" as="geometry" />
        </mxCell>
        <mxCell id="_bW6Bb8Mx8YTXIlW3waP-2" value="Welcome" style="rounded=1;whiteSpace=wrap;html=1;fillColor=#d5e8d4;strokeColor=#82b366;" vertex="1" parent="WIyWlLk6GJQsqaUBKTNV-1">
          <mxGeometry x="370" y="110" width="100" height="30" as="geometry" />
        </mxCell>
        <mxCell id="_bW6Bb8Mx8YTXIlW3waP-8" style="edgeStyle=orthogonalEdgeStyle;rounded=0;orthogonalLoop=1;jettySize=auto;html=1;exitX=1;exitY=0.5;exitDx=0;exitDy=0;entryX=0.5;entryY=0;entryDx=0;entryDy=0;" edge="1" parent="WIyWlLk6GJQsqaUBKTNV-1" source="_bW6Bb8Mx8YTXIlW3waP-5" target="_bW6Bb8Mx8YTXIlW3waP-7">
          <mxGeometry relative="1" as="geometry" />
        </mxCell>
        <mxCell id="_bW6Bb8Mx8YTXIlW3waP-5" value="Start" style="ellipse;whiteSpace=wrap;html=1;fillColor=#ffe6cc;strokeColor=#d79b00;" vertex="1" parent="WIyWlLk6GJQsqaUBKTNV-1">
          <mxGeometry x="381.5" width="88.5" height="40" as="geometry" />
        </mxCell>
        <mxCell id="_bW6Bb8Mx8YTXIlW3waP-10" style="edgeStyle=orthogonalEdgeStyle;rounded=0;orthogonalLoop=1;jettySize=auto;html=1;exitX=0.5;exitY=1;exitDx=0;exitDy=0;entryX=1;entryY=0.5;entryDx=0;entryDy=0;" edge="1" parent="WIyWlLk6GJQsqaUBKTNV-1" source="_bW6Bb8Mx8YTXIlW3waP-6" target="_bW6Bb8Mx8YTXIlW3waP-2">
          <mxGeometry relative="1" as="geometry" />
        </mxCell>
        <mxCell id="_bW6Bb8Mx8YTXIlW3waP-6" value="Process" style="shape=parallelogram;perimeter=parallelogramPerimeter;whiteSpace=wrap;html=1;fixedSize=1;fillColor=#dae8fc;strokeColor=#6c8ebf;" vertex="1" parent="WIyWlLk6GJQsqaUBKTNV-1">
          <mxGeometry x="480" y="90" width="120" height="20" as="geometry" />
        </mxCell>
        <mxCell id="_bW6Bb8Mx8YTXIlW3waP-11" style="edgeStyle=orthogonalEdgeStyle;rounded=0;orthogonalLoop=1;jettySize=auto;html=1;exitX=0;exitY=1;exitDx=0;exitDy=0;entryX=0.75;entryY=0;entryDx=0;entryDy=0;" edge="1" parent="WIyWlLk6GJQsqaUBKTNV-1" source="_bW6Bb8Mx8YTXIlW3waP-7" target="_bW6Bb8Mx8YTXIlW3waP-1">
          <mxGeometry relative="1" as="geometry" />
        </mxCell>
        <mxCell id="_bW6Bb8Mx8YTXIlW3waP-7" value="Process" style="shape=parallelogram;perimeter=parallelogramPerimeter;whiteSpace=wrap;html=1;fixedSize=1;size=10;fillColor=#dae8fc;strokeColor=#6c8ebf;" vertex="1" parent="WIyWlLk6GJQsqaUBKTNV-1">
          <mxGeometry x="470" y="30" width="120" height="20" as="geometry" />
        </mxCell>
        <mxCell id="_bW6Bb8Mx8YTXIlW3waP-15" style="edgeStyle=orthogonalEdgeStyle;rounded=0;orthogonalLoop=1;jettySize=auto;html=1;exitX=0;exitY=0.5;exitDx=0;exitDy=0;strokeColor=#000000;" edge="1" parent="WIyWlLk6GJQsqaUBKTNV-1" source="_bW6Bb8Mx8YTXIlW3waP-12" target="_bW6Bb8Mx8YTXIlW3waP-14">
          <mxGeometry relative="1" as="geometry" />
        </mxCell>
        <mxCell id="_bW6Bb8Mx8YTXIlW3waP-12" value="Y/N" style="rhombus;whiteSpace=wrap;html=1;" vertex="1" parent="WIyWlLk6GJQsqaUBKTNV-1">
          <mxGeometry x="391.5" y="150" width="48.5" height="40" as="geometry" />
        </mxCell>
        <mxCell id="_bW6Bb8Mx8YTXIlW3waP-17" style="edgeStyle=orthogonalEdgeStyle;rounded=0;orthogonalLoop=1;jettySize=auto;html=1;exitX=0;exitY=0.5;exitDx=0;exitDy=0;entryX=1;entryY=0.5;entryDx=0;entryDy=0;" edge="1" parent="WIyWlLk6GJQsqaUBKTNV-1" source="_bW6Bb8Mx8YTXIlW3waP-14" target="_bW6Bb8Mx8YTXIlW3waP-16">
          <mxGeometry relative="1" as="geometry" />
        </mxCell>
        <mxCell id="_bW6Bb8Mx8YTXIlW3waP-14" value="Intro" style="rounded=0;whiteSpace=wrap;html=1;fillColor=#e6d0de;gradientColor=#d5739d;strokeColor=#996185;" vertex="1" parent="WIyWlLk6GJQsqaUBKTNV-1">
          <mxGeometry x="290" y="155" width="70" height="30" as="geometry" />
        </mxCell>
        <mxCell id="_bW6Bb8Mx8YTXIlW3waP-20" style="edgeStyle=orthogonalEdgeStyle;rounded=0;orthogonalLoop=1;jettySize=auto;html=1;exitX=0.5;exitY=0;exitDx=0;exitDy=0;" edge="1" parent="WIyWlLk6GJQsqaUBKTNV-1" source="_bW6Bb8Mx8YTXIlW3waP-16" target="_bW6Bb8Mx8YTXIlW3waP-18">
          <mxGeometry relative="1" as="geometry" />
        </mxCell>
        <mxCell id="_bW6Bb8Mx8YTXIlW3waP-22" style="edgeStyle=orthogonalEdgeStyle;rounded=0;orthogonalLoop=1;jettySize=auto;html=1;exitX=0;exitY=0.5;exitDx=0;exitDy=0;entryX=1;entryY=0.75;entryDx=0;entryDy=0;" edge="1" parent="WIyWlLk6GJQsqaUBKTNV-1" source="_bW6Bb8Mx8YTXIlW3waP-16" target="_bW6Bb8Mx8YTXIlW3waP-19">
          <mxGeometry relative="1" as="geometry" />
        </mxCell>
        <mxCell id="_bW6Bb8Mx8YTXIlW3waP-16" value="1/2" style="rhombus;whiteSpace=wrap;html=1;" vertex="1" parent="WIyWlLk6GJQsqaUBKTNV-1">
          <mxGeometry x="220" y="150" width="50" height="35" as="geometry" />
        </mxCell>
        <mxCell id="_bW6Bb8Mx8YTXIlW3waP-31" style="edgeStyle=orthogonalEdgeStyle;rounded=0;orthogonalLoop=1;jettySize=auto;html=1;exitX=0;exitY=0.5;exitDx=0;exitDy=0;entryX=0.5;entryY=1;entryDx=0;entryDy=0;" edge="1" parent="WIyWlLk6GJQsqaUBKTNV-1" source="_bW6Bb8Mx8YTXIlW3waP-18" target="_bW6Bb8Mx8YTXIlW3waP-23">
          <mxGeometry relative="1" as="geometry" />
        </mxCell>
        <mxCell id="_bW6Bb8Mx8YTXIlW3waP-18" value="&amp;nbsp;Explore Tunnel" style="rounded=0;whiteSpace=wrap;html=1;fillColor=#e6d0de;gradientColor=#d5739d;strokeColor=#996185;direction=south;" vertex="1" parent="WIyWlLk6GJQsqaUBKTNV-1">
          <mxGeometry x="270" y="90" width="90" height="30" as="geometry" />
        </mxCell>
        <mxCell id="_bW6Bb8Mx8YTXIlW3waP-59" style="edgeStyle=orthogonalEdgeStyle;rounded=0;orthogonalLoop=1;jettySize=auto;html=1;exitX=0.5;exitY=1;exitDx=0;exitDy=0;entryX=1;entryY=0.5;entryDx=0;entryDy=0;" edge="1" parent="WIyWlLk6GJQsqaUBKTNV-1" source="_bW6Bb8Mx8YTXIlW3waP-19" target="_bW6Bb8Mx8YTXIlW3waP-53">
          <mxGeometry relative="1" as="geometry">
            <Array as="points">
              <mxPoint x="135" y="200" />
            </Array>
          </mxGeometry>
        </mxCell>
        <mxCell id="_bW6Bb8Mx8YTXIlW3waP-19" value="Drink Me" style="rounded=0;whiteSpace=wrap;html=1;fillColor=#e6d0de;gradientColor=#d5739d;strokeColor=#996185;" vertex="1" parent="WIyWlLk6GJQsqaUBKTNV-1">
          <mxGeometry x="130" y="152.5" width="70" height="30" as="geometry" />
        </mxCell>
        <mxCell id="_bW6Bb8Mx8YTXIlW3waP-23" value="1/2" style="rhombus;whiteSpace=wrap;html=1;" vertex="1" parent="WIyWlLk6GJQsqaUBKTNV-1">
          <mxGeometry x="300" y="30" width="50" height="40" as="geometry" />
        </mxCell>
        <mxCell id="_bW6Bb8Mx8YTXIlW3waP-90" style="edgeStyle=orthogonalEdgeStyle;rounded=0;orthogonalLoop=1;jettySize=auto;html=1;exitX=0.5;exitY=1;exitDx=0;exitDy=0;entryX=0.5;entryY=0;entryDx=0;entryDy=0;" edge="1" parent="WIyWlLk6GJQsqaUBKTNV-1" source="_bW6Bb8Mx8YTXIlW3waP-24" target="_bW6Bb8Mx8YTXIlW3waP-89">
          <mxGeometry relative="1" as="geometry" />
        </mxCell>
        <mxCell id="_bW6Bb8Mx8YTXIlW3waP-24" value="Explore Garen" style="rounded=0;whiteSpace=wrap;html=1;fillColor=#e6d0de;gradientColor=#d5739d;strokeColor=#996185;" vertex="1" parent="WIyWlLk6GJQsqaUBKTNV-1">
          <mxGeometry x="40" y="310" width="70" height="30" as="geometry" />
        </mxCell>
        <mxCell id="_bW6Bb8Mx8YTXIlW3waP-51" style="edgeStyle=orthogonalEdgeStyle;rounded=0;orthogonalLoop=1;jettySize=auto;html=1;exitX=0;exitY=0.5;exitDx=0;exitDy=0;entryX=0.5;entryY=0;entryDx=0;entryDy=0;strokeColor=#FF0000;" edge="1" parent="WIyWlLk6GJQsqaUBKTNV-1" source="_bW6Bb8Mx8YTXIlW3waP-25" target="_bW6Bb8Mx8YTXIlW3waP-40">
          <mxGeometry relative="1" as="geometry" />
        </mxCell>
        <mxCell id="_bW6Bb8Mx8YTXIlW3waP-25" value="Listen Rabbit" style="rounded=0;whiteSpace=wrap;html=1;fillColor=#e6d0de;gradientColor=#d5739d;strokeColor=#996185;" vertex="1" parent="WIyWlLk6GJQsqaUBKTNV-1">
          <mxGeometry x="120" y="5" width="70" height="30" as="geometry" />
        </mxCell>
        <mxCell id="_bW6Bb8Mx8YTXIlW3waP-29" style="edgeStyle=orthogonalEdgeStyle;rounded=0;orthogonalLoop=1;jettySize=auto;html=1;exitX=0.5;exitY=1;exitDx=0;exitDy=0;" edge="1" parent="WIyWlLk6GJQsqaUBKTNV-1" source="_bW6Bb8Mx8YTXIlW3waP-26" target="_bW6Bb8Mx8YTXIlW3waP-26">
          <mxGeometry relative="1" as="geometry" />
        </mxCell>
        <mxCell id="_bW6Bb8Mx8YTXIlW3waP-50" style="edgeStyle=orthogonalEdgeStyle;rounded=0;orthogonalLoop=1;jettySize=auto;html=1;exitX=0;exitY=0.5;exitDx=0;exitDy=0;entryX=1;entryY=0;entryDx=0;entryDy=0;" edge="1" parent="WIyWlLk6GJQsqaUBKTNV-1" source="_bW6Bb8Mx8YTXIlW3waP-26" target="_bW6Bb8Mx8YTXIlW3waP-41">
          <mxGeometry relative="1" as="geometry" />
        </mxCell>
        <mxCell id="_bW6Bb8Mx8YTXIlW3waP-137" value="" style="edgeStyle=orthogonalEdgeStyle;rounded=0;orthogonalLoop=1;jettySize=auto;html=1;" edge="1" parent="WIyWlLk6GJQsqaUBKTNV-1" source="_bW6Bb8Mx8YTXIlW3waP-26" target="_bW6Bb8Mx8YTXIlW3waP-23">
          <mxGeometry relative="1" as="geometry" />
        </mxCell>
        <mxCell id="_bW6Bb8Mx8YTXIlW3waP-26" value="2 Call For Help" style="rounded=0;whiteSpace=wrap;html=1;fillColor=#e6d0de;gradientColor=#d5739d;strokeColor=#996185;" vertex="1" parent="WIyWlLk6GJQsqaUBKTNV-1">
          <mxGeometry x="230" y="5" width="70" height="30" as="geometry" />
        </mxCell>
        <mxCell id="_bW6Bb8Mx8YTXIlW3waP-36" value="" style="endArrow=none;html=1;rounded=0;entryX=0;entryY=0.5;entryDx=0;entryDy=0;strokeColor=#000000;" edge="1" parent="WIyWlLk6GJQsqaUBKTNV-1" target="_bW6Bb8Mx8YTXIlW3waP-23">
          <mxGeometry width="50" height="50" relative="1" as="geometry">
            <mxPoint x="240" y="50" as="sourcePoint" />
            <mxPoint x="440" y="250" as="targetPoint" />
          </mxGeometry>
        </mxCell>
        <mxCell id="_bW6Bb8Mx8YTXIlW3waP-37" value="" style="endArrow=none;html=1;rounded=0;strokeColor=#000000;" edge="1" parent="WIyWlLk6GJQsqaUBKTNV-1">
          <mxGeometry width="50" height="50" relative="1" as="geometry">
            <mxPoint x="240" y="110" as="sourcePoint" />
            <mxPoint x="240" y="50" as="targetPoint" />
          </mxGeometry>
        </mxCell>
        <mxCell id="_bW6Bb8Mx8YTXIlW3waP-38" value="" style="endArrow=none;html=1;rounded=0;strokeColor=#000000;" edge="1" parent="WIyWlLk6GJQsqaUBKTNV-1">
          <mxGeometry width="50" height="50" relative="1" as="geometry">
            <mxPoint x="160" y="110" as="sourcePoint" />
            <mxPoint x="240" y="110" as="targetPoint" />
          </mxGeometry>
        </mxCell>
        <mxCell id="_bW6Bb8Mx8YTXIlW3waP-39" value="" style="endArrow=classic;html=1;rounded=0;strokeColor=#000000;" edge="1" parent="WIyWlLk6GJQsqaUBKTNV-1">
          <mxGeometry width="50" height="50" relative="1" as="geometry">
            <mxPoint x="160" y="110" as="sourcePoint" />
            <mxPoint x="160" y="150" as="targetPoint" />
          </mxGeometry>
        </mxCell>
        <mxCell id="_bW6Bb8Mx8YTXIlW3waP-130" style="edgeStyle=orthogonalEdgeStyle;rounded=0;orthogonalLoop=1;jettySize=auto;html=1;exitX=0.5;exitY=1;exitDx=0;exitDy=0;entryX=0.5;entryY=0;entryDx=0;entryDy=0;" edge="1" parent="WIyWlLk6GJQsqaUBKTNV-1" source="_bW6Bb8Mx8YTXIlW3waP-40" target="_bW6Bb8Mx8YTXIlW3waP-126">
          <mxGeometry relative="1" as="geometry" />
        </mxCell>
        <mxCell id="_bW6Bb8Mx8YTXIlW3waP-40" value="Play Again" style="ellipse;whiteSpace=wrap;html=1;fillColor=#ffcd28;gradientColor=#ffa500;strokeColor=#d79b00;" vertex="1" parent="WIyWlLk6GJQsqaUBKTNV-1">
          <mxGeometry x="10" y="50" width="70" height="40" as="geometry" />
        </mxCell>
        <mxCell id="_bW6Bb8Mx8YTXIlW3waP-49" style="edgeStyle=orthogonalEdgeStyle;rounded=0;orthogonalLoop=1;jettySize=auto;html=1;exitX=0;exitY=0.5;exitDx=0;exitDy=0;entryX=0.5;entryY=1;entryDx=0;entryDy=0;strokeColor=#000000;" edge="1" parent="WIyWlLk6GJQsqaUBKTNV-1" source="_bW6Bb8Mx8YTXIlW3waP-41" target="_bW6Bb8Mx8YTXIlW3waP-25">
          <mxGeometry relative="1" as="geometry" />
        </mxCell>
        <mxCell id="_bW6Bb8Mx8YTXIlW3waP-57" style="edgeStyle=orthogonalEdgeStyle;rounded=0;orthogonalLoop=1;jettySize=auto;html=1;exitX=0;exitY=0.5;exitDx=0;exitDy=0;entryX=0;entryY=0.5;entryDx=0;entryDy=0;" edge="1" parent="WIyWlLk6GJQsqaUBKTNV-1" source="_bW6Bb8Mx8YTXIlW3waP-41">
          <mxGeometry relative="1" as="geometry">
            <mxPoint x="190" y="80" as="sourcePoint" />
            <mxPoint x="35" y="325" as="targetPoint" />
            <Array as="points">
              <mxPoint x="170" y="70" />
              <mxPoint x="135" y="70" />
              <mxPoint x="135" y="110" />
              <mxPoint x="20" y="110" />
              <mxPoint x="20" y="325" />
            </Array>
          </mxGeometry>
        </mxCell>
        <mxCell id="_bW6Bb8Mx8YTXIlW3waP-41" value="1/2" style="rhombus;whiteSpace=wrap;html=1;" vertex="1" parent="WIyWlLk6GJQsqaUBKTNV-1">
          <mxGeometry x="170" y="40" width="50" height="40" as="geometry" />
        </mxCell>
        <mxCell id="_bW6Bb8Mx8YTXIlW3waP-46" value="" style="endArrow=classic;html=1;rounded=0;entryX=1;entryY=0.5;entryDx=0;entryDy=0;strokeColor=#336600;" edge="1" parent="WIyWlLk6GJQsqaUBKTNV-1" target="_bW6Bb8Mx8YTXIlW3waP-26">
          <mxGeometry width="50" height="50" relative="1" as="geometry">
            <mxPoint x="310" y="20" as="sourcePoint" />
            <mxPoint x="440" y="250" as="targetPoint" />
            <Array as="points" />
          </mxGeometry>
        </mxCell>
        <mxCell id="_bW6Bb8Mx8YTXIlW3waP-47" value="" style="endArrow=none;html=1;rounded=0;entryX=0.5;entryY=0;entryDx=0;entryDy=0;" edge="1" parent="WIyWlLk6GJQsqaUBKTNV-1" target="_bW6Bb8Mx8YTXIlW3waP-23">
          <mxGeometry width="50" height="50" relative="1" as="geometry">
            <mxPoint x="310" y="20" as="sourcePoint" />
            <mxPoint x="440" y="250" as="targetPoint" />
          </mxGeometry>
        </mxCell>
        <mxCell id="_bW6Bb8Mx8YTXIlW3waP-64" style="edgeStyle=orthogonalEdgeStyle;rounded=0;orthogonalLoop=1;jettySize=auto;html=1;exitX=1;exitY=1;exitDx=0;exitDy=0;entryX=0.5;entryY=0;entryDx=0;entryDy=0;" edge="1" parent="WIyWlLk6GJQsqaUBKTNV-1" source="_bW6Bb8Mx8YTXIlW3waP-53" target="_bW6Bb8Mx8YTXIlW3waP-63">
          <mxGeometry relative="1" as="geometry" />
        </mxCell>
        <mxCell id="_bW6Bb8Mx8YTXIlW3waP-53" value="1/2" style="rhombus;whiteSpace=wrap;html=1;" vertex="1" parent="WIyWlLk6GJQsqaUBKTNV-1">
          <mxGeometry x="50" y="180" width="50" height="40" as="geometry" />
        </mxCell>
        <mxCell id="_bW6Bb8Mx8YTXIlW3waP-56" style="edgeStyle=orthogonalEdgeStyle;rounded=0;orthogonalLoop=1;jettySize=auto;html=1;exitX=0.5;exitY=1;exitDx=0;exitDy=0;" edge="1" parent="WIyWlLk6GJQsqaUBKTNV-1" source="_bW6Bb8Mx8YTXIlW3waP-24" target="_bW6Bb8Mx8YTXIlW3waP-24">
          <mxGeometry relative="1" as="geometry" />
        </mxCell>
        <mxCell id="_bW6Bb8Mx8YTXIlW3waP-62" style="edgeStyle=orthogonalEdgeStyle;rounded=0;orthogonalLoop=1;jettySize=auto;html=1;exitX=0.25;exitY=0;exitDx=0;exitDy=0;entryX=1;entryY=1;entryDx=0;entryDy=0;strokeColor=#FF0000;" edge="1" parent="WIyWlLk6GJQsqaUBKTNV-1" source="_bW6Bb8Mx8YTXIlW3waP-60" target="_bW6Bb8Mx8YTXIlW3waP-40">
          <mxGeometry relative="1" as="geometry" />
        </mxCell>
        <mxCell id="_bW6Bb8Mx8YTXIlW3waP-60" value="Leave key" style="rounded=0;whiteSpace=wrap;html=1;fillColor=#e6d0de;gradientColor=#d5739d;strokeColor=#996185;" vertex="1" parent="WIyWlLk6GJQsqaUBKTNV-1">
          <mxGeometry x="70" y="120" width="70" height="30" as="geometry" />
        </mxCell>
        <mxCell id="_bW6Bb8Mx8YTXIlW3waP-61" style="edgeStyle=orthogonalEdgeStyle;rounded=0;orthogonalLoop=1;jettySize=auto;html=1;exitX=0.5;exitY=0;exitDx=0;exitDy=0;" edge="1" parent="WIyWlLk6GJQsqaUBKTNV-1" source="_bW6Bb8Mx8YTXIlW3waP-53" target="_bW6Bb8Mx8YTXIlW3waP-60">
          <mxGeometry relative="1" as="geometry" />
        </mxCell>
        <mxCell id="_bW6Bb8Mx8YTXIlW3waP-66" style="edgeStyle=orthogonalEdgeStyle;rounded=0;orthogonalLoop=1;jettySize=auto;html=1;exitX=0.75;exitY=1;exitDx=0;exitDy=0;entryX=0.5;entryY=0;entryDx=0;entryDy=0;" edge="1" parent="WIyWlLk6GJQsqaUBKTNV-1" source="_bW6Bb8Mx8YTXIlW3waP-63" target="_bW6Bb8Mx8YTXIlW3waP-65">
          <mxGeometry relative="1" as="geometry" />
        </mxCell>
        <mxCell id="_bW6Bb8Mx8YTXIlW3waP-63" value="Take key" style="rounded=0;whiteSpace=wrap;html=1;fillColor=#e6d0de;gradientColor=#d5739d;strokeColor=#996185;" vertex="1" parent="WIyWlLk6GJQsqaUBKTNV-1">
          <mxGeometry x="60" y="230" width="70" height="30" as="geometry" />
        </mxCell>
        <mxCell id="_bW6Bb8Mx8YTXIlW3waP-67" style="edgeStyle=orthogonalEdgeStyle;rounded=0;orthogonalLoop=1;jettySize=auto;html=1;exitX=0;exitY=0.5;exitDx=0;exitDy=0;entryX=0.5;entryY=0;entryDx=0;entryDy=0;" edge="1" parent="WIyWlLk6GJQsqaUBKTNV-1" source="_bW6Bb8Mx8YTXIlW3waP-65" target="_bW6Bb8Mx8YTXIlW3waP-24">
          <mxGeometry relative="1" as="geometry" />
        </mxCell>
        <mxCell id="_bW6Bb8Mx8YTXIlW3waP-70" style="edgeStyle=orthogonalEdgeStyle;rounded=0;orthogonalLoop=1;jettySize=auto;html=1;exitX=1;exitY=0.5;exitDx=0;exitDy=0;entryX=0;entryY=0.25;entryDx=0;entryDy=0;" edge="1" parent="WIyWlLk6GJQsqaUBKTNV-1" source="_bW6Bb8Mx8YTXIlW3waP-65" target="_bW6Bb8Mx8YTXIlW3waP-68">
          <mxGeometry relative="1" as="geometry">
            <Array as="points">
              <mxPoint x="160" y="290" />
              <mxPoint x="160" y="250" />
              <mxPoint x="140" y="250" />
              <mxPoint x="140" y="218" />
            </Array>
          </mxGeometry>
        </mxCell>
        <mxCell id="_bW6Bb8Mx8YTXIlW3waP-72" style="edgeStyle=orthogonalEdgeStyle;rounded=0;orthogonalLoop=1;jettySize=auto;html=1;exitX=0.5;exitY=1;exitDx=0;exitDy=0;entryX=0;entryY=0.5;entryDx=0;entryDy=0;" edge="1" parent="WIyWlLk6GJQsqaUBKTNV-1" source="_bW6Bb8Mx8YTXIlW3waP-65" target="_bW6Bb8Mx8YTXIlW3waP-69">
          <mxGeometry relative="1" as="geometry">
            <Array as="points">
              <mxPoint x="170" y="310" />
              <mxPoint x="170" y="295" />
            </Array>
          </mxGeometry>
        </mxCell>
        <mxCell id="_bW6Bb8Mx8YTXIlW3waP-65" value="1/2/3" style="rhombus;whiteSpace=wrap;html=1;" vertex="1" parent="WIyWlLk6GJQsqaUBKTNV-1">
          <mxGeometry x="100" y="270" width="50" height="40" as="geometry" />
        </mxCell>
        <mxCell id="_bW6Bb8Mx8YTXIlW3waP-71" style="edgeStyle=orthogonalEdgeStyle;rounded=0;orthogonalLoop=1;jettySize=auto;html=1;exitX=0.5;exitY=0;exitDx=0;exitDy=0;entryX=1;entryY=0.5;entryDx=0;entryDy=0;strokeColor=#FF0000;" edge="1" parent="WIyWlLk6GJQsqaUBKTNV-1" source="_bW6Bb8Mx8YTXIlW3waP-68" target="_bW6Bb8Mx8YTXIlW3waP-40">
          <mxGeometry relative="1" as="geometry">
            <Array as="points">
              <mxPoint x="210" y="210" />
              <mxPoint x="210" y="90" />
              <mxPoint x="80" y="90" />
            </Array>
          </mxGeometry>
        </mxCell>
        <mxCell id="_bW6Bb8Mx8YTXIlW3waP-68" value="Look For Rabbit" style="rounded=0;whiteSpace=wrap;html=1;fillColor=#e6d0de;gradientColor=#d5739d;strokeColor=#996185;" vertex="1" parent="WIyWlLk6GJQsqaUBKTNV-1">
          <mxGeometry x="160" y="210" width="70" height="30" as="geometry" />
        </mxCell>
        <mxCell id="_bW6Bb8Mx8YTXIlW3waP-78" style="edgeStyle=orthogonalEdgeStyle;rounded=0;orthogonalLoop=1;jettySize=auto;html=1;exitX=1;exitY=0.5;exitDx=0;exitDy=0;entryX=0;entryY=0.5;entryDx=0;entryDy=0;" edge="1" parent="WIyWlLk6GJQsqaUBKTNV-1" source="_bW6Bb8Mx8YTXIlW3waP-69" target="_bW6Bb8Mx8YTXIlW3waP-73">
          <mxGeometry relative="1" as="geometry" />
        </mxCell>
        <mxCell id="_bW6Bb8Mx8YTXIlW3waP-69" value="Rest in Garden" style="rounded=0;whiteSpace=wrap;html=1;fillColor=#e6d0de;gradientColor=#d5739d;strokeColor=#996185;" vertex="1" parent="WIyWlLk6GJQsqaUBKTNV-1">
          <mxGeometry x="180" y="280" width="70" height="30" as="geometry" />
        </mxCell>
        <mxCell id="_bW6Bb8Mx8YTXIlW3waP-80" style="edgeStyle=orthogonalEdgeStyle;rounded=0;orthogonalLoop=1;jettySize=auto;html=1;exitX=1;exitY=0.5;exitDx=0;exitDy=0;entryX=0;entryY=0.25;entryDx=0;entryDy=0;" edge="1" parent="WIyWlLk6GJQsqaUBKTNV-1" source="_bW6Bb8Mx8YTXIlW3waP-73" target="_bW6Bb8Mx8YTXIlW3waP-75">
          <mxGeometry relative="1" as="geometry" />
        </mxCell>
        <mxCell id="_bW6Bb8Mx8YTXIlW3waP-81" style="edgeStyle=orthogonalEdgeStyle;rounded=0;orthogonalLoop=1;jettySize=auto;html=1;exitX=1;exitY=0.5;exitDx=0;exitDy=0;entryX=0;entryY=0.75;entryDx=0;entryDy=0;" edge="1" parent="WIyWlLk6GJQsqaUBKTNV-1" source="_bW6Bb8Mx8YTXIlW3waP-73" target="_bW6Bb8Mx8YTXIlW3waP-76">
          <mxGeometry relative="1" as="geometry">
            <Array as="points">
              <mxPoint x="330" y="295" />
              <mxPoint x="330" y="353" />
            </Array>
          </mxGeometry>
        </mxCell>
        <mxCell id="_bW6Bb8Mx8YTXIlW3waP-83" style="edgeStyle=orthogonalEdgeStyle;rounded=0;orthogonalLoop=1;jettySize=auto;html=1;exitX=0.5;exitY=0;exitDx=0;exitDy=0;entryX=0.25;entryY=1;entryDx=0;entryDy=0;" edge="1" parent="WIyWlLk6GJQsqaUBKTNV-1" source="_bW6Bb8Mx8YTXIlW3waP-73" target="_bW6Bb8Mx8YTXIlW3waP-74">
          <mxGeometry relative="1" as="geometry" />
        </mxCell>
        <mxCell id="_bW6Bb8Mx8YTXIlW3waP-73" value="1/2/3" style="rhombus;whiteSpace=wrap;html=1;" vertex="1" parent="WIyWlLk6GJQsqaUBKTNV-1">
          <mxGeometry x="270" y="275" width="50" height="40" as="geometry" />
        </mxCell>
        <mxCell id="_bW6Bb8Mx8YTXIlW3waP-84" style="edgeStyle=orthogonalEdgeStyle;rounded=0;orthogonalLoop=1;jettySize=auto;html=1;exitX=0;exitY=0.5;exitDx=0;exitDy=0;entryX=1;entryY=0.5;entryDx=0;entryDy=0;strokeColor=#FF0000;" edge="1" parent="WIyWlLk6GJQsqaUBKTNV-1" source="_bW6Bb8Mx8YTXIlW3waP-74" target="_bW6Bb8Mx8YTXIlW3waP-40">
          <mxGeometry relative="1" as="geometry">
            <Array as="points">
              <mxPoint x="250" y="190" />
              <mxPoint x="220" y="190" />
              <mxPoint x="220" y="80" />
              <mxPoint x="80" y="80" />
            </Array>
          </mxGeometry>
        </mxCell>
        <mxCell id="_bW6Bb8Mx8YTXIlW3waP-74" value="Green Door" style="rounded=0;whiteSpace=wrap;html=1;fillColor=#e6d0de;gradientColor=#d5739d;strokeColor=#996185;" vertex="1" parent="WIyWlLk6GJQsqaUBKTNV-1">
          <mxGeometry x="250" y="210" width="70" height="30" as="geometry" />
        </mxCell>
        <mxCell id="_bW6Bb8Mx8YTXIlW3waP-115" style="edgeStyle=orthogonalEdgeStyle;rounded=0;orthogonalLoop=1;jettySize=auto;html=1;exitX=0.5;exitY=0;exitDx=0;exitDy=0;entryX=0.5;entryY=1;entryDx=0;entryDy=0;" edge="1" parent="WIyWlLk6GJQsqaUBKTNV-1" source="_bW6Bb8Mx8YTXIlW3waP-75" target="_bW6Bb8Mx8YTXIlW3waP-114">
          <mxGeometry relative="1" as="geometry" />
        </mxCell>
        <mxCell id="_bW6Bb8Mx8YTXIlW3waP-75" value="Red Door" style="rounded=0;whiteSpace=wrap;html=1;fillColor=#e6d0de;gradientColor=#d5739d;strokeColor=#996185;" vertex="1" parent="WIyWlLk6GJQsqaUBKTNV-1">
          <mxGeometry x="340" y="285" width="70" height="30" as="geometry" />
        </mxCell>
        <mxCell id="_bW6Bb8Mx8YTXIlW3waP-104" style="edgeStyle=orthogonalEdgeStyle;rounded=0;orthogonalLoop=1;jettySize=auto;html=1;exitX=1;exitY=0.5;exitDx=0;exitDy=0;entryX=0;entryY=0.5;entryDx=0;entryDy=0;" edge="1" parent="WIyWlLk6GJQsqaUBKTNV-1" source="_bW6Bb8Mx8YTXIlW3waP-76" target="_bW6Bb8Mx8YTXIlW3waP-101">
          <mxGeometry relative="1" as="geometry" />
        </mxCell>
        <mxCell id="_bW6Bb8Mx8YTXIlW3waP-76" value="Blue Door" style="rounded=0;whiteSpace=wrap;html=1;fillColor=#e6d0de;gradientColor=#d5739d;strokeColor=#996185;" vertex="1" parent="WIyWlLk6GJQsqaUBKTNV-1">
          <mxGeometry x="340" y="330" width="70" height="30" as="geometry" />
        </mxCell>
        <mxCell id="_bW6Bb8Mx8YTXIlW3waP-93" style="edgeStyle=orthogonalEdgeStyle;rounded=0;orthogonalLoop=1;jettySize=auto;html=1;exitX=1;exitY=0.5;exitDx=0;exitDy=0;entryX=0.5;entryY=1;entryDx=0;entryDy=0;" edge="1" parent="WIyWlLk6GJQsqaUBKTNV-1" source="_bW6Bb8Mx8YTXIlW3waP-86" target="_bW6Bb8Mx8YTXIlW3waP-73">
          <mxGeometry relative="1" as="geometry" />
        </mxCell>
        <mxCell id="_bW6Bb8Mx8YTXIlW3waP-86" value="Avoid Table" style="rounded=0;whiteSpace=wrap;html=1;fillColor=#e6d0de;gradientColor=#d5739d;strokeColor=#996185;" vertex="1" parent="WIyWlLk6GJQsqaUBKTNV-1">
          <mxGeometry x="140" y="330" width="70" height="30" as="geometry" />
        </mxCell>
        <mxCell id="_bW6Bb8Mx8YTXIlW3waP-95" style="edgeStyle=orthogonalEdgeStyle;rounded=0;orthogonalLoop=1;jettySize=auto;html=1;exitX=1;exitY=0.25;exitDx=0;exitDy=0;entryX=0;entryY=0.5;entryDx=0;entryDy=0;" edge="1" parent="WIyWlLk6GJQsqaUBKTNV-1" source="_bW6Bb8Mx8YTXIlW3waP-87" target="_bW6Bb8Mx8YTXIlW3waP-94">
          <mxGeometry relative="1" as="geometry" />
        </mxCell>
        <mxCell id="_bW6Bb8Mx8YTXIlW3waP-87" value="Talk To Cat" style="rounded=0;whiteSpace=wrap;html=1;fillColor=#e6d0de;gradientColor=#d5739d;strokeColor=#996185;" vertex="1" parent="WIyWlLk6GJQsqaUBKTNV-1">
          <mxGeometry x="140" y="380" width="70" height="30" as="geometry" />
        </mxCell>
        <mxCell id="_bW6Bb8Mx8YTXIlW3waP-91" style="edgeStyle=orthogonalEdgeStyle;rounded=0;orthogonalLoop=1;jettySize=auto;html=1;exitX=1;exitY=0.5;exitDx=0;exitDy=0;entryX=0;entryY=0.5;entryDx=0;entryDy=0;" edge="1" parent="WIyWlLk6GJQsqaUBKTNV-1" source="_bW6Bb8Mx8YTXIlW3waP-89" target="_bW6Bb8Mx8YTXIlW3waP-86">
          <mxGeometry relative="1" as="geometry" />
        </mxCell>
        <mxCell id="_bW6Bb8Mx8YTXIlW3waP-92" style="edgeStyle=orthogonalEdgeStyle;rounded=0;orthogonalLoop=1;jettySize=auto;html=1;exitX=1;exitY=0.5;exitDx=0;exitDy=0;entryX=0;entryY=0.5;entryDx=0;entryDy=0;" edge="1" parent="WIyWlLk6GJQsqaUBKTNV-1" source="_bW6Bb8Mx8YTXIlW3waP-89" target="_bW6Bb8Mx8YTXIlW3waP-87">
          <mxGeometry relative="1" as="geometry" />
        </mxCell>
        <mxCell id="_bW6Bb8Mx8YTXIlW3waP-89" value="1/2" style="rhombus;whiteSpace=wrap;html=1;" vertex="1" parent="WIyWlLk6GJQsqaUBKTNV-1">
          <mxGeometry x="50" y="360" width="50" height="40" as="geometry" />
        </mxCell>
        <mxCell id="_bW6Bb8Mx8YTXIlW3waP-96" style="edgeStyle=orthogonalEdgeStyle;rounded=0;orthogonalLoop=1;jettySize=auto;html=1;exitX=0.5;exitY=0;exitDx=0;exitDy=0;entryX=1;entryY=1;entryDx=0;entryDy=0;" edge="1" parent="WIyWlLk6GJQsqaUBKTNV-1" source="_bW6Bb8Mx8YTXIlW3waP-94" target="_bW6Bb8Mx8YTXIlW3waP-68">
          <mxGeometry relative="1" as="geometry">
            <Array as="points">
              <mxPoint x="255" y="260" />
              <mxPoint x="230" y="260" />
            </Array>
          </mxGeometry>
        </mxCell>
        <mxCell id="_bW6Bb8Mx8YTXIlW3waP-98" style="edgeStyle=orthogonalEdgeStyle;rounded=0;orthogonalLoop=1;jettySize=auto;html=1;exitX=0.5;exitY=1;exitDx=0;exitDy=0;entryX=1;entryY=0.5;entryDx=0;entryDy=0;" edge="1" parent="WIyWlLk6GJQsqaUBKTNV-1" source="_bW6Bb8Mx8YTXIlW3waP-94" target="_bW6Bb8Mx8YTXIlW3waP-97">
          <mxGeometry relative="1" as="geometry" />
        </mxCell>
        <mxCell id="_bW6Bb8Mx8YTXIlW3waP-94" value="1/2" style="rhombus;whiteSpace=wrap;html=1;" vertex="1" parent="WIyWlLk6GJQsqaUBKTNV-1">
          <mxGeometry x="230" y="370" width="50" height="40" as="geometry" />
        </mxCell>
        <mxCell id="_bW6Bb8Mx8YTXIlW3waP-124" style="edgeStyle=orthogonalEdgeStyle;rounded=0;orthogonalLoop=1;jettySize=auto;html=1;exitX=0.5;exitY=1;exitDx=0;exitDy=0;entryX=0.5;entryY=1;entryDx=0;entryDy=0;strokeColor=#FF0000;" edge="1" parent="WIyWlLk6GJQsqaUBKTNV-1" source="_bW6Bb8Mx8YTXIlW3waP-97" target="_bW6Bb8Mx8YTXIlW3waP-108">
          <mxGeometry relative="1" as="geometry">
            <mxPoint x="80" y="490" as="sourcePoint" />
            <mxPoint x="660" y="410" as="targetPoint" />
            <Array as="points">
              <mxPoint x="80" y="450" />
              <mxPoint x="80" y="470" />
              <mxPoint x="365" y="470" />
              <mxPoint x="365" y="410" />
              <mxPoint x="655" y="410" />
            </Array>
          </mxGeometry>
        </mxCell>
        <mxCell id="_bW6Bb8Mx8YTXIlW3waP-97" value="Talk To Cat" style="rounded=0;whiteSpace=wrap;html=1;fillColor=#e6d0de;gradientColor=#d5739d;strokeColor=#996185;" vertex="1" parent="WIyWlLk6GJQsqaUBKTNV-1">
          <mxGeometry x="40" y="420" width="70" height="30" as="geometry" />
        </mxCell>
        <mxCell id="_bW6Bb8Mx8YTXIlW3waP-105" style="edgeStyle=orthogonalEdgeStyle;rounded=0;orthogonalLoop=1;jettySize=auto;html=1;exitX=1;exitY=0.5;exitDx=0;exitDy=0;entryX=0;entryY=0.25;entryDx=0;entryDy=0;" edge="1" parent="WIyWlLk6GJQsqaUBKTNV-1" source="_bW6Bb8Mx8YTXIlW3waP-101" target="_bW6Bb8Mx8YTXIlW3waP-102">
          <mxGeometry relative="1" as="geometry">
            <Array as="points">
              <mxPoint x="480" y="330" />
              <mxPoint x="510" y="330" />
            </Array>
          </mxGeometry>
        </mxCell>
        <mxCell id="_bW6Bb8Mx8YTXIlW3waP-107" style="edgeStyle=orthogonalEdgeStyle;rounded=0;orthogonalLoop=1;jettySize=auto;html=1;exitX=1;exitY=0.5;exitDx=0;exitDy=0;entryX=0;entryY=0.75;entryDx=0;entryDy=0;" edge="1" parent="WIyWlLk6GJQsqaUBKTNV-1" source="_bW6Bb8Mx8YTXIlW3waP-101" target="_bW6Bb8Mx8YTXIlW3waP-103">
          <mxGeometry relative="1" as="geometry" />
        </mxCell>
        <mxCell id="_bW6Bb8Mx8YTXIlW3waP-101" value="1/2" style="rhombus;whiteSpace=wrap;html=1;" vertex="1" parent="WIyWlLk6GJQsqaUBKTNV-1">
          <mxGeometry x="430" y="330" width="50" height="35" as="geometry" />
        </mxCell>
        <mxCell id="_bW6Bb8Mx8YTXIlW3waP-109" style="edgeStyle=orthogonalEdgeStyle;rounded=0;orthogonalLoop=1;jettySize=auto;html=1;exitX=1;exitY=0.5;exitDx=0;exitDy=0;entryX=0;entryY=0;entryDx=0;entryDy=0;strokeColor=#FF0000;" edge="1" parent="WIyWlLk6GJQsqaUBKTNV-1" source="_bW6Bb8Mx8YTXIlW3waP-102" target="_bW6Bb8Mx8YTXIlW3waP-108">
          <mxGeometry relative="1" as="geometry" />
        </mxCell>
        <mxCell id="_bW6Bb8Mx8YTXIlW3waP-102" value="Challenge Queen" style="rounded=0;whiteSpace=wrap;html=1;fillColor=#e6d0de;gradientColor=#d5739d;strokeColor=#996185;" vertex="1" parent="WIyWlLk6GJQsqaUBKTNV-1">
          <mxGeometry x="510" y="315" width="70" height="30" as="geometry" />
        </mxCell>
        <mxCell id="_bW6Bb8Mx8YTXIlW3waP-110" style="edgeStyle=orthogonalEdgeStyle;rounded=0;orthogonalLoop=1;jettySize=auto;html=1;exitX=1;exitY=0.5;exitDx=0;exitDy=0;entryX=0;entryY=1;entryDx=0;entryDy=0;strokeColor=#FF0000;" edge="1" parent="WIyWlLk6GJQsqaUBKTNV-1" source="_bW6Bb8Mx8YTXIlW3waP-103" target="_bW6Bb8Mx8YTXIlW3waP-108">
          <mxGeometry relative="1" as="geometry" />
        </mxCell>
        <mxCell id="_bW6Bb8Mx8YTXIlW3waP-103" value="Ask Queen For Way Home" style="rounded=0;whiteSpace=wrap;html=1;fillColor=#e6d0de;gradientColor=#d5739d;strokeColor=#996185;" vertex="1" parent="WIyWlLk6GJQsqaUBKTNV-1">
          <mxGeometry x="505" y="370" width="85" height="30" as="geometry" />
        </mxCell>
        <mxCell id="_bW6Bb8Mx8YTXIlW3waP-128" style="edgeStyle=orthogonalEdgeStyle;rounded=0;orthogonalLoop=1;jettySize=auto;html=1;exitX=1;exitY=0.5;exitDx=0;exitDy=0;entryX=0;entryY=0.5;entryDx=0;entryDy=0;" edge="1" parent="WIyWlLk6GJQsqaUBKTNV-1" source="_bW6Bb8Mx8YTXIlW3waP-108" target="_bW6Bb8Mx8YTXIlW3waP-125">
          <mxGeometry relative="1" as="geometry" />
        </mxCell>
        <mxCell id="_bW6Bb8Mx8YTXIlW3waP-108" value="Play Again" style="ellipse;whiteSpace=wrap;html=1;fillColor=#ffcd28;gradientColor=#ffa500;strokeColor=#d79b00;" vertex="1" parent="WIyWlLk6GJQsqaUBKTNV-1">
          <mxGeometry x="620" y="330" width="70" height="40" as="geometry" />
        </mxCell>
        <mxCell id="_bW6Bb8Mx8YTXIlW3waP-119" style="edgeStyle=orthogonalEdgeStyle;rounded=0;orthogonalLoop=1;jettySize=auto;html=1;exitX=1;exitY=0.5;exitDx=0;exitDy=0;entryX=0;entryY=0.5;entryDx=0;entryDy=0;" edge="1" parent="WIyWlLk6GJQsqaUBKTNV-1" source="_bW6Bb8Mx8YTXIlW3waP-111" target="_bW6Bb8Mx8YTXIlW3waP-118">
          <mxGeometry relative="1" as="geometry" />
        </mxCell>
        <mxCell id="_bW6Bb8Mx8YTXIlW3waP-111" value="Mad Hatter Tea Party" style="rounded=0;whiteSpace=wrap;html=1;fillColor=#e6d0de;gradientColor=#d5739d;strokeColor=#996185;" vertex="1" parent="WIyWlLk6GJQsqaUBKTNV-1">
          <mxGeometry x="413.5" y="220" width="70" height="30" as="geometry" />
        </mxCell>
        <mxCell id="_bW6Bb8Mx8YTXIlW3waP-113" style="edgeStyle=orthogonalEdgeStyle;rounded=0;orthogonalLoop=1;jettySize=auto;html=1;exitX=1;exitY=0.5;exitDx=0;exitDy=0;entryX=0;entryY=0;entryDx=0;entryDy=0;strokeColor=#FF0000;" edge="1" parent="WIyWlLk6GJQsqaUBKTNV-1" source="_bW6Bb8Mx8YTXIlW3waP-112" target="_bW6Bb8Mx8YTXIlW3waP-108">
          <mxGeometry relative="1" as="geometry">
            <Array as="points">
              <mxPoint x="500" y="285" />
              <mxPoint x="500" y="310" />
              <mxPoint x="630" y="310" />
            </Array>
          </mxGeometry>
        </mxCell>
        <mxCell id="_bW6Bb8Mx8YTXIlW3waP-112" value="Explore Forest" style="rounded=0;whiteSpace=wrap;html=1;fillColor=#e6d0de;gradientColor=#d5739d;strokeColor=#996185;" vertex="1" parent="WIyWlLk6GJQsqaUBKTNV-1">
          <mxGeometry x="420" y="270" width="70" height="30" as="geometry" />
        </mxCell>
        <mxCell id="_bW6Bb8Mx8YTXIlW3waP-117" style="edgeStyle=orthogonalEdgeStyle;rounded=0;orthogonalLoop=1;jettySize=auto;html=1;exitX=1;exitY=0.5;exitDx=0;exitDy=0;entryX=0.5;entryY=0;entryDx=0;entryDy=0;" edge="1" parent="WIyWlLk6GJQsqaUBKTNV-1" source="_bW6Bb8Mx8YTXIlW3waP-114" target="_bW6Bb8Mx8YTXIlW3waP-112">
          <mxGeometry relative="1" as="geometry">
            <Array as="points">
              <mxPoint x="420" y="253" />
              <mxPoint x="420" y="260" />
              <mxPoint x="455" y="260" />
            </Array>
          </mxGeometry>
        </mxCell>
        <mxCell id="_bW6Bb8Mx8YTXIlW3waP-114" value="1/2" style="rhombus;whiteSpace=wrap;html=1;" vertex="1" parent="WIyWlLk6GJQsqaUBKTNV-1">
          <mxGeometry x="350" y="235" width="50" height="35" as="geometry" />
        </mxCell>
        <mxCell id="_bW6Bb8Mx8YTXIlW3waP-116" style="edgeStyle=orthogonalEdgeStyle;rounded=0;orthogonalLoop=1;jettySize=auto;html=1;exitX=1;exitY=0.5;exitDx=0;exitDy=0;entryX=0.385;entryY=-0.025;entryDx=0;entryDy=0;entryPerimeter=0;" edge="1" parent="WIyWlLk6GJQsqaUBKTNV-1" source="_bW6Bb8Mx8YTXIlW3waP-114" target="_bW6Bb8Mx8YTXIlW3waP-111">
          <mxGeometry relative="1" as="geometry">
            <Array as="points">
              <mxPoint x="400" y="210" />
              <mxPoint x="441" y="210" />
            </Array>
          </mxGeometry>
        </mxCell>
        <mxCell id="_bW6Bb8Mx8YTXIlW3waP-120" style="edgeStyle=orthogonalEdgeStyle;rounded=0;orthogonalLoop=1;jettySize=auto;html=1;exitX=0.5;exitY=0;exitDx=0;exitDy=0;entryX=0.5;entryY=0;entryDx=0;entryDy=0;" edge="1" parent="WIyWlLk6GJQsqaUBKTNV-1" source="_bW6Bb8Mx8YTXIlW3waP-118" target="_bW6Bb8Mx8YTXIlW3waP-68">
          <mxGeometry relative="1" as="geometry">
            <Array as="points">
              <mxPoint x="535" y="200" />
              <mxPoint x="195" y="200" />
            </Array>
          </mxGeometry>
        </mxCell>
        <mxCell id="_bW6Bb8Mx8YTXIlW3waP-122" style="edgeStyle=orthogonalEdgeStyle;rounded=0;orthogonalLoop=1;jettySize=auto;html=1;exitX=1;exitY=0.5;exitDx=0;exitDy=0;entryX=0.5;entryY=0;entryDx=0;entryDy=0;" edge="1" parent="WIyWlLk6GJQsqaUBKTNV-1" source="_bW6Bb8Mx8YTXIlW3waP-118" target="_bW6Bb8Mx8YTXIlW3waP-121">
          <mxGeometry relative="1" as="geometry" />
        </mxCell>
        <mxCell id="_bW6Bb8Mx8YTXIlW3waP-118" value="1/2" style="rhombus;whiteSpace=wrap;html=1;" vertex="1" parent="WIyWlLk6GJQsqaUBKTNV-1">
          <mxGeometry x="510" y="215" width="50" height="35" as="geometry" />
        </mxCell>
        <mxCell id="_bW6Bb8Mx8YTXIlW3waP-123" style="edgeStyle=orthogonalEdgeStyle;rounded=0;orthogonalLoop=1;jettySize=auto;html=1;exitX=1;exitY=0.5;exitDx=0;exitDy=0;entryX=0.5;entryY=0;entryDx=0;entryDy=0;strokeColor=#FF0000;" edge="1" parent="WIyWlLk6GJQsqaUBKTNV-1" source="_bW6Bb8Mx8YTXIlW3waP-121" target="_bW6Bb8Mx8YTXIlW3waP-108">
          <mxGeometry relative="1" as="geometry" />
        </mxCell>
        <mxCell id="_bW6Bb8Mx8YTXIlW3waP-121" value="Ask For Way home" style="rounded=0;whiteSpace=wrap;html=1;fillColor=#e6d0de;gradientColor=#d5739d;strokeColor=#996185;" vertex="1" parent="WIyWlLk6GJQsqaUBKTNV-1">
          <mxGeometry x="560" y="250" width="70" height="30" as="geometry" />
        </mxCell>
        <mxCell id="_bW6Bb8Mx8YTXIlW3waP-134" style="edgeStyle=orthogonalEdgeStyle;rounded=0;orthogonalLoop=1;jettySize=auto;html=1;exitX=1;exitY=0.5;exitDx=0;exitDy=0;entryX=1;entryY=0.5;entryDx=0;entryDy=0;strokeColor=#FF0000;" edge="1" parent="WIyWlLk6GJQsqaUBKTNV-1" source="_bW6Bb8Mx8YTXIlW3waP-125" target="_bW6Bb8Mx8YTXIlW3waP-127">
          <mxGeometry relative="1" as="geometry" />
        </mxCell>
        <mxCell id="_bW6Bb8Mx8YTXIlW3waP-135" style="edgeStyle=orthogonalEdgeStyle;rounded=0;orthogonalLoop=1;jettySize=auto;html=1;exitX=0.5;exitY=0;exitDx=0;exitDy=0;entryX=0.5;entryY=1;entryDx=0;entryDy=0;strokeColor=#0000FF;" edge="1" parent="WIyWlLk6GJQsqaUBKTNV-1" source="_bW6Bb8Mx8YTXIlW3waP-125" target="_bW6Bb8Mx8YTXIlW3waP-14">
          <mxGeometry relative="1" as="geometry">
            <Array as="points">
              <mxPoint x="730" y="190" />
              <mxPoint x="325" y="190" />
            </Array>
          </mxGeometry>
        </mxCell>
        <mxCell id="_bW6Bb8Mx8YTXIlW3waP-125" value="y/n" style="rhombus;whiteSpace=wrap;html=1;" vertex="1" parent="WIyWlLk6GJQsqaUBKTNV-1">
          <mxGeometry x="710" y="335" width="40" height="35" as="geometry" />
        </mxCell>
        <mxCell id="_bW6Bb8Mx8YTXIlW3waP-132" style="edgeStyle=orthogonalEdgeStyle;rounded=0;orthogonalLoop=1;jettySize=auto;html=1;exitX=0;exitY=0.5;exitDx=0;exitDy=0;entryX=0.5;entryY=0;entryDx=0;entryDy=0;strokeColor=#FF0000;" edge="1" parent="WIyWlLk6GJQsqaUBKTNV-1" source="_bW6Bb8Mx8YTXIlW3waP-126" target="_bW6Bb8Mx8YTXIlW3waP-127">
          <mxGeometry relative="1" as="geometry">
            <Array as="points">
              <mxPoint x="-10" y="135" />
              <mxPoint x="-10" />
              <mxPoint x="610" />
            </Array>
          </mxGeometry>
        </mxCell>
        <mxCell id="_bW6Bb8Mx8YTXIlW3waP-136" style="edgeStyle=orthogonalEdgeStyle;rounded=0;orthogonalLoop=1;jettySize=auto;html=1;exitX=0.5;exitY=1;exitDx=0;exitDy=0;entryX=1;entryY=0.25;entryDx=0;entryDy=0;strokeColor=#0000FF;" edge="1" parent="WIyWlLk6GJQsqaUBKTNV-1">
          <mxGeometry relative="1" as="geometry">
            <mxPoint x="31.5" y="151.25" as="sourcePoint" />
            <mxPoint x="361.5" y="161.25" as="targetPoint" />
            <Array as="points">
              <mxPoint x="-28" y="151" />
              <mxPoint x="-28" y="-11" />
              <mxPoint x="362" y="-11" />
              <mxPoint x="362" y="134" />
            </Array>
          </mxGeometry>
        </mxCell>
        <mxCell id="_bW6Bb8Mx8YTXIlW3waP-126" value="y/n" style="rhombus;whiteSpace=wrap;html=1;" vertex="1" parent="WIyWlLk6GJQsqaUBKTNV-1">
          <mxGeometry x="10" y="117.5" width="40" height="35" as="geometry" />
        </mxCell>
        <mxCell id="_bW6Bb8Mx8YTXIlW3waP-127" value="End of the Game" style="ellipse;whiteSpace=wrap;html=1;fillColor=#fa6800;fontColor=#000000;strokeColor=#C73500;" vertex="1" parent="WIyWlLk6GJQsqaUBKTNV-1">
          <mxGeometry x="560" y="145" width="100" height="40" as="geometry" />
        </mxCell>
      </root>
    </mxGraphModel>
  </diagram>
</mxfile>
